<?xml version="1.0" standalone="no"?>
<!DOCTYPE svg PUBLIC "-//W3C//DTD SVG 20010904//EN"
 "http://www.w3.org/TR/2001/REC-SVG-20010904/DTD/svg10.dtd">
<svg version="1.0" xmlns="http://www.w3.org/2000/svg"
 width="470.000000pt" height="470.000000pt" viewBox="0 0 470.000000 470.000000"
 preserveAspectRatio="xMidYMid meet">

<g transform="translate(0.000000,470.000000) scale(0.100000,-0.100000)"
fill="#000000" stroke="none">
<path d="M4650 4340 c-14 -11 -31 -20 -39 -20 -8 0 -11 -6 -7 -16 4 -12 1 -14
-14 -9 -11 4 -20 2 -20 -3 0 -5 -13 -15 -30 -22 -16 -7 -30 -16 -30 -21 0 -5
-8 -9 -18 -9 -10 0 -22 -4 -28 -10 -5 -5 -22 -11 -37 -12 -15 -1 -26 -7 -23
-13 2 -6 -5 -12 -17 -12 -11 -1 -24 -8 -28 -15 -5 -7 -9 -9 -9 -4 0 5 -7 3
-15 -4 -8 -7 -15 -9 -15 -4 0 4 -15 -7 -33 -24 -18 -18 -37 -29 -42 -25 -4 5
-5 0 -2 -9 4 -10 2 -18 -3 -18 -6 0 -10 5 -10 12 0 9 -3 9 -11 1 -6 -6 -18 -9
-26 -6 -7 3 -21 -3 -31 -14 -9 -11 -23 -18 -30 -15 -7 2 -19 -4 -27 -14 -7
-11 -17 -16 -20 -12 -4 4 -17 1 -29 -7 -11 -8 -31 -15 -44 -15 -13 0 -21 -4
-18 -9 3 -4 -6 -6 -19 -3 -19 3 -25 0 -25 -13 0 -14 -3 -15 -15 -5 -12 10 -15
10 -15 -3 0 -10 -6 -14 -15 -11 -8 4 -15 1 -15 -5 0 -6 -13 -11 -28 -11 -15 0
-33 -5 -40 -12 -7 -7 -12 -9 -12 -5 0 4 -20 -4 -44 -18 -24 -13 -46 -21 -50
-18 -3 4 -6 0 -6 -7 0 -7 -3 -11 -6 -7 -3 3 -17 2 -30 -3 -14 -6 -37 -12 -52
-15 -15 -2 -28 -9 -30 -15 -2 -5 -8 -7 -13 -4 -6 3 -16 0 -24 -6 -8 -6 -19 -9
-24 -6 -5 4 -14 -1 -20 -11 -6 -12 -24 -18 -58 -20 -49 -3 -101 -9 -105 -13
-4 -3 -40 -10 -65 -12 -13 -1 -23 -8 -23 -16 0 -10 -5 -10 -21 -1 -12 6 -24 7
-28 3 -6 -9 -38 -13 -109 -14 -27 0 -33 -4 -28 -17 5 -12 3 -13 -6 -6 -7 6
-22 9 -33 6 -11 -2 -38 -5 -60 -7 -28 -2 -39 -7 -37 -16 2 -10 -3 -8 -17 4
-13 12 -21 14 -21 7 0 -8 -7 -10 -20 -6 -12 4 -27 2 -35 -5 -9 -7 -15 -8 -20
0 -4 7 -13 7 -27 -1 -11 -6 -35 -13 -52 -16 -17 -2 -43 -8 -57 -14 -14 -6 -30
-9 -35 -8 -5 1 -11 0 -14 -1 -3 -1 -12 -3 -20 -5 -8 -1 -44 -11 -80 -21 -72
-20 -161 -25 -201 -12 -32 11 -73 64 -65 84 3 9 1 12 -4 9 -6 -3 -10 -1 -10 4
0 6 6 11 13 11 11 0 -7 13 -60 41 -13 7 -23 17 -23 22 0 5 6 4 14 -2 25 -21
27 6 2 36 -13 15 -40 62 -60 103 -40 79 -64 113 -76 105 -5 -3 -10 0 -12 6 -2
7 -13 13 -24 14 -10 1 -32 7 -47 14 -16 6 -34 11 -41 11 -7 0 -16 3 -20 8 -4
4 -22 7 -39 8 -47 1 -130 15 -142 25 -6 4 -26 7 -45 7 -19 -1 -51 1 -70 5 -75
14 -177 28 -220 32 -25 2 -75 7 -112 11 -49 5 -68 4 -68 -5 0 -7 -9 -9 -22 -6
-46 10 -118 14 -118 7 0 -4 -46 -6 -102 -6 -56 1 -112 -3 -124 -8 -13 -6 -31
-7 -41 -3 -28 12 -53 16 -53 7 0 -4 -36 -7 -79 -7 -119 1 -153 -4 -146 -23 5
-14 4 -14 -12 0 -19 17 -53 20 -53 6 0 -5 -5 -6 -10 -3 -6 4 -32 0 -58 -9 -49
-16 -102 -26 -162 -31 -56 -5 -164 -26 -175 -35 -5 -4 -25 -11 -42 -15 -29 -6
-33 -10 -33 -41 0 -19 3 -34 8 -35 4 0 17 -2 28 -5 12 -2 27 3 34 11 8 9 24
12 52 9 25 -3 48 0 62 9 15 10 28 12 38 6 11 -6 19 -5 23 1 4 6 15 8 24 5 10
-3 24 1 31 10 9 11 16 12 26 4 9 -7 19 -7 35 1 17 10 23 9 30 -1 7 -11 9 -11
9 2 0 17 45 27 138 32 37 2 43 0 39 -15 -3 -9 0 -19 7 -22 7 -3 7 -5 -2 -5 -7
-1 -10 -5 -7 -11 3 -5 1 -10 -4 -10 -15 0 -14 -33 1 -48 14 -14 8 -15 -25 -3
-17 7 -33 5 -53 -6 -16 -8 -43 -15 -60 -16 -18 0 -36 -8 -42 -17 -8 -14 -4
-20 25 -34 19 -9 38 -14 43 -11 5 3 11 1 15 -5 8 -12 45 -13 45 -1 0 4 12 8
28 7 23 -1 27 -6 30 -35 1 -23 -4 -38 -15 -47 -15 -11 -15 -13 -3 -14 10 0 7
-7 -10 -20 -22 -17 -23 -20 -6 -20 15 0 12 -6 -15 -27 -27 -20 -89 -116 -89
-136 0 -2 19 -1 42 2 61 9 81 4 127 -31 32 -24 51 -23 51 5 0 18 2 19 10 7 8
-13 10 -12 10 3 0 10 5 15 11 12 6 -4 13 2 16 13 6 23 29 36 46 25 7 -4 23 -6
36 -4 16 2 21 -1 16 -9 -5 -7 1 -7 15 2 18 11 23 11 35 -5 13 -18 14 -18 25 4
11 20 8 27 -43 74 -31 29 -62 55 -71 58 -9 4 -13 12 -11 20 3 7 -6 23 -20 35
-14 12 -25 29 -25 39 0 9 -8 25 -18 36 -16 19 -16 20 5 15 13 -4 25 -3 28 2 3
4 20 11 40 14 34 7 95 49 95 67 0 5 -13 9 -30 9 -16 0 -30 5 -30 11 0 6 -7 9
-15 6 -8 -4 -17 -2 -21 4 -3 6 -13 7 -23 4 -24 -10 -61 -13 -56 -5 3 4 -4 19
-15 33 -14 17 -17 28 -9 32 6 4 8 16 6 27 -5 16 -1 19 26 18 18 -1 34 -1 37 0
10 3 75 12 85 11 6 0 75 -3 155 -6 193 -7 217 -9 227 -18 4 -5 8 -30 8 -56 l0
-48 -29 10 c-21 7 -34 7 -48 -2 -15 -9 -20 -8 -25 5 -3 8 -9 11 -12 6 -3 -5
-19 -13 -36 -19 -16 -5 -35 -20 -42 -34 -11 -21 -10 -25 10 -35 12 -7 25 -10
30 -7 5 3 17 -3 28 -13 15 -13 19 -14 19 -3 1 10 5 8 15 -5 8 -11 15 -15 15
-9 0 6 9 13 20 16 15 4 20 0 20 -13 0 -11 -5 -22 -10 -25 -6 -4 -8 -11 -4 -16
7 -13 -30 -71 -55 -87 -12 -7 -21 -17 -21 -23 0 -16 -26 -39 -45 -39 -9 0 -13
-4 -10 -10 3 -5 0 -10 -8 -10 -16 0 -47 -31 -47 -48 0 -6 14 -9 35 -7 19 2 38
-1 41 -6 3 -6 11 -6 19 1 10 8 24 1 59 -34 l47 -45 34 22 c19 12 34 28 35 34
0 14 48 14 67 1 6 -5 14 -5 17 1 4 6 16 4 33 -4 19 -10 31 -11 40 -4 6 6 16 8
22 5 5 -3 11 1 15 9 3 9 -4 20 -20 28 -24 13 -41 35 -63 85 -6 12 -17 25 -25
28 -8 3 -12 12 -9 20 3 8 -4 23 -17 34 -18 15 -20 22 -10 39 6 12 7 21 2 21
-4 0 -8 9 -8 19 0 16 3 18 21 9 11 -6 20 -11 20 -11 0 0 11 6 25 13 14 8 35
13 47 11 12 -1 30 6 42 15 19 16 19 18 3 30 -9 8 -25 14 -35 14 -10 0 -27 9
-39 20 -15 14 -25 17 -33 10 -9 -7 -16 -5 -25 5 -10 12 -10 15 0 15 9 0 9 4
-1 17 -21 25 -2 92 22 77 5 -3 32 -7 61 -10 29 -2 56 -8 61 -13 7 -7 17 -7 28
-1 12 7 37 5 78 -6 34 -8 69 -14 79 -13 9 1 24 -1 32 -4 15 -6 64 -14 113 -20
15 -2 35 -11 45 -21 16 -17 16 -18 -5 -11 -18 5 -25 1 -35 -20 -8 -19 -14 -22
-20 -13 -5 8 -7 -2 -4 -25 3 -34 1 -37 -18 -31 -11 3 -28 13 -37 21 -15 12
-22 11 -57 -7 -23 -12 -45 -19 -50 -16 -5 3 -19 -5 -31 -18 -13 -13 -18 -26
-14 -29 24 -15 120 -46 137 -44 14 1 20 -6 23 -25 2 -16 -1 -28 -7 -28 -5 0
-10 -5 -10 -11 0 -14 -56 -69 -70 -69 -5 0 -10 -5 -10 -12 0 -6 -3 -9 -6 -5
-11 11 -47 -31 -39 -45 6 -10 5 -11 -6 0 -16 15 -29 16 -29 0 0 -6 -10 -22
-22 -35 -12 -13 -19 -25 -16 -28 9 -9 73 -12 94 -5 16 6 26 3 40 -13 10 -12
19 -29 21 -37 2 -14 41 -49 55 -50 4 0 13 7 21 15 8 8 18 11 21 8 4 -4 13 3
22 15 8 12 19 20 24 17 4 -3 10 0 12 7 3 9 17 8 57 -5 68 -22 68 -22 74 9 3
20 -1 28 -20 37 -13 6 -22 16 -19 22 2 6 -7 21 -20 34 -13 13 -24 32 -24 42 0
10 -7 19 -15 19 -18 0 -19 14 -4 42 9 16 8 19 -2 13 -9 -6 -10 -3 -5 10 4 11
0 25 -11 37 -14 15 -14 21 -3 31 10 10 12 8 6 -7 -6 -17 -2 -18 29 -13 19 3
35 2 35 -2 0 -6 34 -7 50 -1 10 4 26 7 48 8 29 2 28 26 -3 50 -13 11 -22 22
-19 25 3 2 -18 11 -45 18 -28 7 -52 18 -53 23 -4 33 -4 43 5 59 5 12 4 23 -3
32 -9 11 -3 13 34 11 50 -4 82 -26 63 -45 -8 -8 -8 -11 1 -11 16 0 58 -93 44
-98 -6 -2 2 -16 18 -31 27 -25 53 -71 55 -96 0 -5 4 -16 9 -23 4 -7 3 -19 -3
-26 -9 -11 -7 -15 10 -19 14 -4 20 -11 16 -21 -3 -8 -1 -16 4 -18 5 -2 11 -20
12 -40 3 -48 11 -54 43 -33 26 17 27 17 20 -1 -6 -17 -6 -17 12 -1 22 20 39
23 23 3 -9 -10 -8 -16 4 -26 8 -7 12 -16 10 -21 -3 -4 7 -19 22 -33 23 -22 24
-24 6 -20 -11 3 -24 1 -27 -5 -4 -6 -3 -11 3 -11 6 0 8 -7 5 -15 -4 -8 -2 -15
4 -15 6 0 8 -9 5 -20 -4 -15 0 -20 13 -21 18 0 18 -1 1 -8 -17 -6 -17 -8 -4
-19 8 -7 14 -21 12 -30 -1 -9 1 -24 5 -32 4 -8 4 -25 -1 -38 -8 -20 -12 -21
-30 -11 -24 12 -42 -3 -36 -31 2 -9 -2 -22 -10 -29 -12 -11 -12 -16 3 -32 9
-10 12 -19 6 -19 -12 0 -10 -38 3 -59 5 -9 2 -17 -9 -23 -15 -8 -15 -11 -1
-25 12 -12 13 -18 4 -29 -6 -8 -8 -14 -3 -14 5 0 1 -5 -9 -11 -15 -9 -16 -13
-6 -26 10 -12 10 -16 0 -22 -10 -7 -11 -13 -1 -31 10 -19 8 -25 -10 -45 -21
-23 -21 -24 -3 -42 11 -11 18 -24 15 -31 -2 -6 8 -14 22 -18 14 -3 26 -10 26
-15 0 -5 7 -9 15 -9 12 0 15 -10 13 -45 -2 -25 -6 -45 -9 -45 -3 0 -6 -20 -6
-44 -1 -24 -8 -55 -17 -69 -9 -13 -15 -31 -14 -38 2 -9 -7 -14 -26 -14 -16 -1
-31 -6 -33 -12 -3 -8 -15 -6 -39 7 -19 11 -34 17 -34 15 0 -3 -15 1 -33 9 -23
9 -39 10 -50 4 -10 -5 -23 -6 -29 -2 -7 5 -21 9 -31 9 -25 2 -39 19 -32 37 7
18 60 29 74 15 5 -5 28 -11 51 -13 23 -2 46 -6 50 -9 20 -12 20 18 1 39 -12
12 -19 25 -15 28 3 4 -6 14 -20 23 -22 15 -24 20 -14 33 10 13 10 14 0 8 -14
-8 -33 31 -25 52 3 6 0 12 -6 12 -6 0 -11 6 -11 14 0 8 -6 17 -12 19 -8 3 -6
6 5 6 9 1 17 8 17 17 0 9 -5 12 -12 8 -7 -4 -10 -4 -6 0 4 5 3 19 -2 32 -9 23
-9 24 14 9 13 -9 30 -13 39 -10 8 4 18 2 21 -4 4 -6 15 -7 29 -2 12 4 27 6 33
4 6 -2 18 7 27 20 14 22 14 27 1 46 -9 12 -26 21 -40 21 -16 0 -27 7 -33 22
-5 14 -10 17 -15 10 -10 -16 -46 -15 -46 1 0 6 7 25 15 41 12 23 13 31 3 37
-7 4 -13 20 -14 36 -1 15 -2 31 -3 35 -1 8 -28 4 -38 -7 -4 -4 -2 -5 5 -1 20
12 14 -1 -14 -29 -14 -14 -29 -23 -34 -20 -5 3 -14 -4 -20 -15 -8 -15 -8 -20
1 -20 8 0 9 -4 0 -13 -6 -8 -8 -17 -4 -20 3 -4 1 -7 -6 -7 -7 0 -9 -4 -6 -10
3 -5 2 -10 -4 -10 -5 0 -12 4 -15 8 -3 5 -15 8 -28 7 -13 -1 -31 2 -40 7 -13
6 -18 5 -18 -4 0 -9 -3 -9 -11 -1 -8 8 -20 8 -43 -2 -17 -7 -37 -10 -43 -8
-20 7 -15 -21 7 -45 34 -36 95 -63 129 -56 28 6 29 5 28 -27 -1 -19 -7 -33
-14 -32 -6 1 -28 -18 -49 -42 -27 -32 -43 -43 -56 -39 -10 3 -18 0 -18 -6 0
-17 -69 -78 -74 -66 -2 6 -5 4 -5 -5 -1 -16 26 -29 63 -29 11 0 28 -7 38 -17
17 -15 18 -15 18 0 0 10 5 17 10 17 6 0 10 -9 10 -20 0 -10 8 -24 18 -29 14
-9 10 -11 -20 -9 -21 1 -40 -1 -44 -5 -4 -4 -16 0 -26 9 -12 12 -21 14 -30 7
-7 -6 -29 -9 -48 -7 -65 8 -155 13 -215 12 -117 -1 -149 2 -156 13 -4 7 -9 8
-13 1 -3 -6 -29 -10 -56 -10 -34 -1 -48 3 -44 10 4 7 2 8 -5 4 -6 -4 -9 -11
-7 -15 6 -9 -56 -7 -72 3 -6 3 -13 0 -15 -6 -4 -10 -8 -9 -16 2 -8 12 -11 12
-11 1 0 -11 -3 -11 -15 -1 -14 12 -19 7 -16 -13 1 -5 -7 -7 -16 -5 -10 1 -23
-1 -30 -5 -7 -4 -18 1 -26 13 -12 18 -15 19 -21 5 -3 -9 -11 -15 -18 -14 -7 2
-24 -1 -37 -5 -15 -5 -26 -4 -31 3 -5 9 -10 8 -20 -4 -15 -18 -36 -20 -43 -2
-3 7 -6 5 -6 -5 -1 -20 -31 -25 -31 -5 0 6 -5 4 -11 -6 -8 -14 -14 -15 -24 -7
-10 8 -25 8 -55 0 -23 -6 -44 -9 -47 -6 -3 3 -19 -2 -35 -10 -16 -8 -33 -12
-38 -9 -6 3 -10 2 -10 -3 0 -13 -30 -11 -30 2 0 6 -6 4 -13 -4 -7 -9 -19 -15
-27 -15 -8 1 -19 -1 -25 -4 -5 -3 -14 -6 -20 -7 -32 -3 -75 -18 -75 -25 0 -5
-10 -5 -22 -1 -28 9 -49 9 -65 -1 -7 -5 -17 -6 -22 -3 -4 3 -22 1 -40 -4 -21
-6 -31 -5 -31 3 0 6 -6 3 -12 -5 -17 -22 -65 -13 -79 15 -9 16 -8 22 5 29 13
8 14 13 4 31 -15 27 -11 76 8 94 17 17 18 27 3 17 -6 -3 -10 1 -9 12 1 11 1
21 0 24 -2 4 -9 80 -11 115 -1 29 10 50 29 53 12 2 22 0 22 -5 0 -18 71 -19
150 -1 10 2 15 -5 15 -22 -1 -14 5 -29 12 -33 11 -7 9 -13 -6 -33 -11 -14 -17
-32 -14 -40 3 -8 1 -14 -5 -14 -5 0 -15 -13 -22 -30 -7 -16 -17 -30 -22 -30
-6 0 -8 -6 -5 -13 3 -7 -6 -23 -19 -36 -13 -13 -24 -27 -24 -32 0 -4 34 -6 75
-5 62 3 78 0 88 -13 23 -32 77 -36 77 -7 0 7 11 18 25 24 15 7 25 20 25 32 0
20 12 24 58 20 12 -1 22 4 22 10 0 7 12 9 35 4 28 -5 36 -3 42 11 4 13 -2 24
-23 39 -27 19 -69 56 -135 118 -16 14 -29 24 -29 21 0 -3 -7 0 -15 7 -9 7 -14
19 -11 26 3 8 0 11 -8 8 -8 -3 -17 -1 -20 5 -9 14 25 30 57 27 15 -2 32 3 39
11 6 8 24 21 40 29 37 19 35 31 -8 49 -44 18 -47 18 -38 3 5 -9 2 -8 -10 1
-13 11 -20 11 -28 3 -7 -7 -27 -12 -44 -12 -30 0 -32 2 -29 31 3 24 -3 37 -31
65 l-36 34 -30 -46 c-16 -26 -26 -50 -21 -53 5 -3 14 -18 20 -33 10 -23 10
-26 -3 -21 -8 3 -20 0 -28 -6 -7 -6 -15 -8 -19 -5 -12 12 -57 10 -68 -3 -7 -7
-20 -11 -29 -8 -11 3 -20 -1 -24 -10 -3 -9 -11 -13 -17 -10 -6 4 -8 13 -5 21
3 8 1 14 -4 14 -5 0 -7 7 -4 15 4 8 1 15 -4 15 -6 0 -9 11 -6 25 2 14 0 25 -4
25 -5 0 -9 10 -9 23 -1 39 -3 47 -13 47 -7 0 -9 -166 -8 -492 3 -433 5 -493
18 -489 8 2 23 4 33 5 9 0 17 5 17 11 0 7 7 12 15 13 8 1 22 3 30 4 8 1 15 4
15 8 0 3 12 7 28 8 31 3 85 9 92 12 8 3 24 7 38 8 7 1 10 6 7 12 -4 7 2 7 19
0 20 -7 24 -6 19 5 -6 18 1 19 28 5 10 -6 19 -7 19 -2 0 5 17 10 38 11 53 2
81 6 88 14 4 4 13 2 21 -4 7 -6 13 -7 13 -2 0 5 6 10 13 11 6 1 31 3 54 5 23
1 45 6 49 10 4 4 13 2 21 -4 10 -9 13 -8 13 0 0 8 14 11 40 8 22 -2 43 0 46 4
2 5 16 4 29 -1 14 -5 27 -6 30 0 3 5 17 7 30 4 14 -2 25 -1 25 4 0 10 7 11 80
15 31 2 60 6 65 9 6 3 52 5 102 4 51 -2 93 1 93 5 0 9 68 5 92 -6 12 -4 18 -3
18 5 0 10 3 10 15 0 8 -6 19 -9 25 -5 5 3 10 1 10 -6 0 -9 3 -9 14 0 10 9 16
9 21 1 4 -6 17 -10 28 -9 12 0 24 0 27 -1 3 -1 25 -3 50 -4 25 -1 50 -5 57 -9
6 -4 14 -3 18 2 3 6 11 8 19 5 7 -3 30 -7 52 -9 54 -6 85 -11 109 -18 11 -3
33 -8 49 -11 16 -3 33 -11 38 -18 6 -10 10 -10 18 2 8 12 13 13 29 3 11 -7 22
-9 25 -4 5 7 90 -10 126 -26 8 -3 19 -5 23 -4 4 1 15 -5 23 -13 13 -13 12 -16
-4 -25 -12 -7 -17 -20 -17 -45 1 -20 -1 -36 -5 -36 -10 0 -9 -39 1 -45 5 -4 6
-11 3 -17 -8 -12 -15 -53 -15 -80 0 -9 -6 -18 -12 -21 -10 -4 -62 -1 -62 3 0
3 -39 9 -70 12 -16 1 -32 5 -35 10 -3 4 -21 10 -40 12 -77 12 -106 18 -117 28
-9 7 -13 7 -13 -2 0 -10 -5 -9 -18 3 -12 11 -22 13 -34 6 -12 -7 -24 -6 -37 1
-25 13 -34 13 -26 0 3 -5 1 -10 -4 -10 -6 0 -11 4 -11 10 0 5 -6 7 -14 4 -8
-3 -17 0 -21 6 -6 9 -10 9 -16 -1 -6 -10 -11 -11 -16 -3 -5 5 -18 10 -30 11
-46 2 -52 3 -67 19 -10 10 -16 11 -16 4 0 -7 -6 -10 -14 -7 -7 3 -19 0 -25 -6
-8 -8 -11 -8 -11 2 0 7 -5 9 -12 5 -18 -11 -48 -12 -54 -2 -3 4 -9 6 -14 3 -5
-3 -11 -1 -15 5 -4 6 -12 7 -18 3 -17 -10 -50 -12 -68 -2 -8 4 -21 4 -29 -1
-9 -5 -20 -4 -28 2 -10 9 -15 9 -21 0 -8 -14 -99 -23 -107 -11 -2 5 -15 4 -28
-1 -13 -5 -37 -8 -53 -8 -15 1 -38 -2 -50 -6 -40 -13 -68 -17 -133 -22 -74 -6
-125 -11 -125 -14 0 -11 -98 -18 -117 -9 -10 5 -19 5 -23 0 -3 -6 -13 -9 -23
-9 -27 1 -46 -6 -58 -22 -10 -11 -15 -12 -27 -2 -11 9 -17 10 -22 2 -4 -6 -15
-8 -25 -5 -10 3 -25 -1 -33 -10 -9 -8 -22 -12 -30 -9 -8 3 -22 -2 -31 -11 -12
-12 -16 -13 -16 -3 0 10 -2 10 -8 1 -6 -10 -76 -25 -119 -26 -7 0 -13 -4 -13
-8 0 -5 -7 -6 -15 -3 -8 4 -15 1 -15 -5 0 -6 -3 -10 -7 -10 -32 5 -33 -2 -33
-170 0 -163 1 -170 19 -166 11 2 29 9 40 15 12 6 21 8 21 4 0 -3 7 0 16 7 18
15 34 19 87 22 21 2 42 8 46 15 4 7 15 10 24 6 10 -3 17 -1 17 5 0 6 9 11 21
11 11 0 29 5 39 10 13 7 21 7 25 0 4 -7 14 -5 28 5 26 18 41 19 31 2 -4 -6 2
-4 14 7 12 10 28 16 36 13 9 -4 18 -2 21 3 3 5 19 7 35 5 16 -2 32 0 35 5 3 5
13 9 23 8 9 0 40 3 67 7 28 4 57 8 65 9 9 1 21 5 28 10 6 4 17 4 22 1 6 -4 17
-2 25 5 10 8 19 8 33 1 15 -8 21 -7 25 3 3 8 21 13 44 14 21 0 55 3 76 6 21 3
35 1 32 -4 -3 -5 7 -5 25 0 17 5 52 5 78 1 27 -4 56 -5 66 -2 19 7 134 6 142
-1 2 -3 22 -2 44 2 22 4 40 4 40 0 0 -4 42 -7 93 -7 50 -1 106 -7 122 -14 17
-6 35 -13 40 -14 6 -1 12 -3 15 -5 3 -1 25 -3 50 -4 25 -1 50 -5 57 -9 6 -4
15 -3 18 3 5 8 12 7 23 -2 12 -11 16 -11 20 0 3 10 9 9 26 -6 11 -11 36 -22
54 -25 18 -4 41 -15 52 -25 12 -11 32 -17 50 -16 16 1 33 -2 36 -7 3 -5 15 -9
28 -9 28 0 53 -28 50 -57 0 -12 5 -24 12 -27 8 -3 14 -16 13 -28 -1 -28 4 -49
14 -66 5 -6 6 -16 3 -21 -3 -4 1 -17 9 -27 8 -10 15 -29 15 -41 0 -13 3 -23 8
-23 4 0 8 -11 8 -25 1 -16 -3 -25 -13 -25 -8 0 -11 5 -7 13 5 9 4 9 -6 0 -10
-10 -19 -8 -39 5 -31 21 -57 22 -53 2 2 -8 -8 -2 -21 15 -21 25 -27 28 -41 16
-10 -8 -16 -9 -16 -3 0 6 -6 9 -14 6 -8 -3 -17 -1 -20 5 -4 6 -13 8 -21 4 -8
-3 -15 0 -15 7 0 7 -7 10 -15 6 -8 -3 -34 1 -58 8 -24 7 -54 12 -68 11 -13 -1
-31 4 -40 11 -19 17 -147 26 -152 10 -3 -8 -8 -7 -19 1 -8 7 -23 14 -34 16
-10 1 -23 5 -29 9 -5 3 -21 5 -35 4 -14 -1 -28 3 -32 9 -5 6 -11 6 -19 -2 -15
-15 -52 2 -44 20 4 7 0 4 -8 -6 -9 -10 -21 -15 -31 -11 -9 3 -16 1 -16 -6 0
-6 -5 -8 -11 -5 -6 4 -34 9 -62 11 -29 3 -61 6 -72 7 -11 2 -30 0 -42 -4 -18
-7 -21 -5 -16 9 6 14 4 15 -8 5 -12 -10 -18 -10 -28 0 -9 9 -14 9 -19 1 -4 -7
-28 -12 -53 -11 -25 0 -51 -3 -57 -7 -6 -3 -14 -2 -17 4 -5 8 -14 6 -29 -4
-15 -9 -28 -11 -37 -5 -8 5 -22 6 -33 3 -14 -5 -16 -3 -11 7 5 8 -1 5 -13 -5
-17 -14 -22 -16 -22 -5 -1 10 -5 8 -15 -5 -13 -17 -20 -18 -62 -9 -37 9 -50 9
-55 -1 -4 -8 -26 -12 -56 -12 -32 1 -48 -2 -46 -9 3 -6 -6 -12 -18 -13 -86 -6
-108 -10 -137 -25 -18 -9 -38 -14 -43 -11 -5 3 -16 -2 -23 -12 -13 -16 -16
-17 -24 -4 -10 15 -26 7 -26 -13 0 -7 -4 -12 -10 -13 -26 -1 -82 -18 -101 -31
-12 -7 -28 -11 -37 -7 -10 3 -22 -4 -33 -20 -12 -20 -20 -24 -29 -16 -10 8
-24 4 -54 -17 l-40 -28 -1 -162 c0 -140 2 -162 15 -157 8 4 15 10 15 15 0 4 7
6 15 3 8 -4 15 -1 15 6 0 6 4 9 9 6 5 -3 11 4 14 15 3 12 10 18 16 14 6 -3 23
2 39 12 15 11 34 19 42 18 8 0 25 10 38 22 13 13 32 23 42 23 11 0 20 5 20 11
0 6 7 9 15 5 10 -3 15 1 15 13 0 14 7 17 30 16 17 -1 30 2 30 7 0 5 9 7 19 3
11 -3 22 -1 26 5 4 6 14 9 22 6 9 -4 11 -2 7 6 -5 8 -2 9 9 5 9 -3 19 -2 23 4
3 6 12 8 19 5 7 -2 16 2 19 10 3 9 10 13 15 10 14 -9 42 5 34 17 -4 6 -1 7 8
2 21 -13 48 -13 59 0 6 7 22 11 37 9 15 -1 39 4 55 12 19 10 34 12 45 5 10 -5
26 -5 41 0 13 5 28 7 33 3 5 -3 9 0 9 6 0 7 22 9 69 6 46 -4 71 -2 73 6 3 8
10 8 25 -1 12 -6 24 -7 27 -3 3 5 24 8 48 7 24 -1 51 2 60 7 9 4 19 4 22 -1 3
-5 15 -7 25 -4 10 3 29 0 41 -7 15 -8 25 -8 34 -1 7 6 15 9 17 6 11 -10 79
-12 79 -1 0 7 3 8 8 1 4 -6 25 -10 47 -9 22 0 46 -4 53 -9 8 -6 12 -6 12 0 0
11 94 10 128 -1 14 -5 22 -3 22 4 0 6 11 5 30 -5 16 -8 33 -15 37 -14 4 1 10
0 13 -1 3 -1 26 -3 52 -5 25 -1 51 -6 57 -9 6 -4 11 -2 11 4 0 6 5 8 12 4 6
-4 27 -9 47 -11 20 -2 45 -13 57 -24 12 -11 25 -19 30 -18 5 1 22 -3 37 -9 16
-7 34 -12 42 -12 7 0 15 -7 18 -14 4 -11 1 -13 -10 -9 -11 5 -14 3 -9 -6 10
-16 -28 -53 -48 -45 -9 3 -17 -2 -21 -15 -4 -14 -15 -21 -31 -21 -14 0 -22 -4
-19 -10 3 -5 -6 -12 -20 -16 -14 -3 -25 -10 -25 -15 0 -5 -8 -5 -17 -2 -16 6
-16 5 -4 -10 12 -15 12 -17 -3 -11 -19 7 -22 -11 -3 -20 6 -4 3 -5 -9 -2 -11
2 -29 -3 -39 -10 -10 -8 -15 -14 -9 -14 5 0 3 -4 -5 -9 -11 -7 -10 -15 9 -46
18 -29 28 -36 47 -32 13 2 26 0 29 -5 3 -5 14 -6 23 -3 10 3 24 -1 31 -10 14
-17 37 -20 42 -5 4 12 69 -7 79 -23 4 -5 9 -4 14 2 5 9 10 9 21 0 11 -9 14 -9
14 1 0 8 4 9 13 3 6 -5 23 -8 37 -7 14 2 51 4 83 6 31 1 57 5 57 9 0 4 9 5 20
2 11 -3 20 -1 20 5 0 6 8 9 18 7 9 -2 17 -4 17 -5 0 -1 17 -3 38 -4 20 -2 37
1 37 7 0 5 6 5 14 -2 10 -8 16 -8 24 2 7 8 35 12 82 12 51 -1 73 2 77 12 3 7
9 10 14 7 20 -12 30 9 10 23 -26 17 -27 33 -3 32 10 0 12 -3 4 -6 -14 -5 27
-43 47 -43 14 0 14 17 1 25 -5 3 -10 11 -10 17 0 6 10 2 23 -10 13 -12 26 -20
29 -16 7 6 80 16 116 15 15 -1 21 3 16 11 -5 8 -2 9 9 5 9 -3 33 1 52 9 20 8
39 13 43 10 5 -3 14 -1 22 4 9 5 20 4 29 -3 12 -10 14 -9 9 4 -5 14 -1 16 28
12 22 -3 34 -1 34 7 0 7 7 10 15 6 9 -3 18 1 22 9 4 12 9 13 19 4 10 -8 14 -8
14 0 0 6 14 11 31 11 24 0 30 4 25 15 -5 13 -2 14 15 4 16 -8 23 -8 29 1 4 7
21 13 38 14 17 1 37 7 44 14 6 6 20 12 30 12 10 0 17 6 15 13 -2 13 5 13 39 3
14 -4 28 -1 38 10 9 9 25 14 36 11 11 -3 20 -1 20 5 0 6 11 7 25 4 14 -4 25
-2 25 4 0 5 7 10 15 10 8 0 15 5 15 11 0 6 8 8 19 4 11 -3 22 -2 25 4 3 5 16
7 29 5 12 -2 16 -2 10 2 -7 3 -13 12 -13 21 0 12 2 12 16 -2 12 -12 19 -13 30
-4 7 6 18 8 23 5 5 -4 12 -2 16 4 4 6 11 8 16 5 5 -4 9 -1 9 5 0 7 7 9 17 6
10 -4 23 1 35 13 14 16 26 19 50 14 23 -5 29 -3 23 6 -9 15 36 11 47 -4 4 -6
8 -2 8 8 0 9 6 17 14 17 8 0 16 6 19 13 3 9 8 8 22 -3 11 -9 16 -10 11 -2 -5
8 0 12 13 12 12 0 21 4 21 10 0 5 7 7 15 4 8 -4 15 -2 15 4 0 5 14 8 31 6 18
-2 28 0 24 6 -4 7 5 9 24 5 24 -4 31 -2 31 10 0 9 5 13 10 10 6 -4 17 -1 25 5
8 6 18 9 24 6 5 -3 11 0 14 8 4 9 15 12 33 8 18 -3 25 -1 20 6 -3 6 9 15 29
22 19 6 35 16 35 20 0 5 6 7 14 4 8 -3 17 0 21 5 3 6 11 8 17 5 7 -5 9 0 6 14
-5 18 -3 20 10 13 19 -10 54 0 53 14 0 6 7 9 15 7 8 -2 14 2 14 7 0 6 7 8 15
5 8 -4 15 -1 15 5 0 6 7 11 15 11 8 0 23 8 33 18 10 10 24 16 30 14 9 -3 12
40 12 170 l0 173 -31 0 c-28 0 -52 -18 -62 -49 -3 -7 -9 -7 -20 3 -15 12 -17
11 -17 -9 0 -19 -2 -20 -15 -10 -15 12 -20 4 -16 -22 0 -5 -5 -8 -13 -8 -8 0
-22 -7 -31 -16 -12 -13 -19 -14 -30 -4 -12 10 -15 9 -15 -7 0 -12 -7 -19 -20
-19 -11 0 -20 5 -20 10 0 5 -8 2 -18 -7 -15 -13 -21 -14 -31 -4 -11 10 -13 7
-9 -16 4 -21 3 -25 -8 -16 -9 7 -19 7 -35 -1 -14 -8 -19 -8 -15 -1 12 19 -10
12 -29 -9 -10 -11 -21 -17 -25 -15 -4 3 -13 -2 -20 -10 -7 -8 -16 -13 -20 -10
-5 3 -11 1 -15 -5 -4 -6 -11 -8 -16 -5 -5 4 -9 -1 -9 -10 0 -12 -4 -14 -19 -6
-14 8 -22 7 -31 -4 -7 -8 -16 -12 -21 -9 -5 3 -24 -2 -41 -11 -23 -11 -34 -12
-36 -5 -3 7 -17 0 -33 -16 -17 -16 -29 -22 -29 -14 0 10 -5 9 -18 -3 -10 -10
-24 -17 -30 -17 -6 0 -17 -7 -25 -15 -9 -8 -35 -16 -60 -17 -34 -2 -43 -6 -39
-18 4 -12 2 -13 -8 -3 -11 10 -16 9 -26 -5 -13 -16 -13 -16 -14 0 0 14 -5 13
-27 -8 -15 -13 -34 -24 -42 -22 -9 1 -26 -4 -39 -10 -12 -7 -26 -10 -31 -7 -5
3 -17 -2 -25 -11 -9 -9 -16 -11 -16 -4 0 6 -5 8 -12 3 -7 -4 -25 -8 -41 -8
-15 0 -37 -9 -48 -19 -18 -15 -23 -15 -30 -5 -7 11 -11 10 -22 -5 -11 -15 -17
-17 -35 -7 -13 7 -22 8 -22 2 0 -13 -38 -25 -72 -23 -16 1 -28 -2 -28 -8 0 -5
-5 -10 -11 -10 -5 0 -7 5 -4 10 9 15 -18 7 -35 -10 -19 -19 -40 -24 -40 -9 0
6 -5 7 -12 2 -7 -4 -22 -8 -33 -8 -11 0 -26 -5 -34 -10 -10 -5 -16 -4 -19 3
-2 7 -11 8 -27 2 -12 -5 -26 -6 -29 -3 -3 4 -6 1 -6 -6 0 -7 -8 -11 -17 -10
-10 2 -29 -3 -43 -10 -13 -8 -45 -15 -71 -16 -25 -1 -51 -5 -57 -9 -6 -3 -13
-2 -16 3 -7 11 29 25 43 17 5 -4 25 4 45 16 36 24 58 64 51 97 -2 11 3 25 10
31 8 6 11 18 8 26 -3 8 0 21 7 29 10 12 9 15 -4 15 -13 0 -15 6 -10 26 4 14 2
29 -3 33 -6 4 -5 18 4 39 12 29 18 33 38 28 19 -5 25 -2 25 9 0 14 2 15 21 1
17 -12 26 -12 43 -3 11 7 24 17 29 22 4 6 11 4 17 -5 9 -13 12 -13 23 2 9 11
18 14 28 7 22 -14 32 -11 27 9 -4 15 0 18 16 17 11 -1 32 2 46 8 14 5 32 11
40 12 42 8 63 15 76 26 8 6 14 8 14 4 0 -4 6 -2 14 4 8 6 28 13 45 14 17 1 31
6 31 11 0 4 7 5 15 2 9 -3 18 1 21 8 3 8 20 14 37 14 46 1 70 7 75 20 2 6 10
8 18 5 8 -3 14 0 14 7 0 6 5 8 10 5 6 -3 10 -2 10 4 0 6 16 13 35 17 19 3 35
10 35 14 0 9 38 23 65 22 11 0 24 6 30 13 5 8 29 19 53 25 23 6 42 15 42 20 0
5 7 7 15 4 8 -4 15 -1 15 6 0 7 8 9 19 5 11 -3 21 0 24 8 3 8 18 15 33 15 16
0 30 5 32 11 2 6 12 11 23 11 10 0 19 5 19 10 0 6 14 10 30 10 17 0 30 5 30
10 0 6 10 10 23 10 12 0 30 7 40 15 11 7 25 11 32 9 7 -3 19 4 25 16 6 12 17
19 25 17 7 -3 18 0 24 6 6 6 11 8 11 4 0 -4 10 -2 23 5 12 7 25 13 30 14 4 1
10 3 15 4 4 1 16 3 27 4 11 0 19 7 17 14 -1 8 2 11 7 8 5 -4 16 1 25 10 9 8
20 13 25 10 5 -3 11 1 15 9 3 8 15 15 27 15 12 0 28 8 35 17 8 11 13 13 14 6
0 -18 30 -16 30 2 0 17 36 39 50 30 6 -4 10 60 10 177 0 177 -1 184 -20 185
-14 1 -20 -4 -20 -19 0 -15 -5 -19 -20 -15 -11 3 -20 2 -20 -3 0 -16 -39 -18
-43 -1 -3 10 -5 7 -6 -8 -1 -19 -4 -22 -12 -14 -14 14 -73 -12 -64 -27 3 -6
-1 -7 -9 -4 -8 3 -25 -2 -39 -10 -13 -9 -32 -14 -41 -10 -10 4 -18 0 -22 -10
-4 -9 -14 -16 -24 -14 -10 2 -29 -8 -42 -22 -12 -14 -30 -24 -39 -22 -9 2 -23
-4 -32 -12 -8 -8 -17 -12 -21 -9 -3 3 -12 0 -21 -7 -8 -7 -22 -10 -30 -6 -10
4 -15 -1 -15 -16 0 -17 -3 -18 -14 -9 -16 14 -43 4 -66 -24 -9 -11 -15 -12
-20 -5 -5 8 -12 6 -23 -5 -9 -9 -21 -13 -27 -10 -5 3 -10 1 -10 -5 0 -7 -6
-10 -14 -7 -8 3 -17 -1 -20 -9 -3 -9 -9 -13 -13 -11 -5 3 -19 1 -32 -4 -16 -6
-21 -14 -17 -25 5 -14 4 -14 -7 -5 -11 8 -21 8 -43 -3 -19 -10 -32 -12 -40 -5
-8 6 -13 5 -18 -6 -3 -8 -12 -15 -20 -15 -8 0 -16 -4 -18 -9 -3 -10 -22 -14
-51 -12 -15 1 -16 4 -6 22 8 16 8 24 -2 33 -9 8 -10 8 -4 -3 6 -10 4 -12 -4
-7 -6 4 -9 16 -6 26 3 11 0 20 -10 24 -10 3 -15 15 -13 28 2 19 -1 23 -19 21
-25 -3 -29 7 -11 25 10 10 5 11 -22 6 -31 -6 -33 -5 -18 7 15 12 15 16 2 27
-8 7 -14 9 -14 5 0 -9 -20 19 -20 28 0 11 40 18 46 7 3 -5 11 -2 18 8 7 9 22
18 32 19 10 1 27 5 36 9 9 4 22 5 28 1 5 -3 10 0 10 7 0 8 8 14 18 14 26 2 64
11 97 24 43 17 75 20 75 7 0 -7 7 -4 14 6 7 9 18 17 25 17 6 0 11 5 11 11 0 5
5 7 10 4 6 -3 10 -2 10 4 0 6 7 8 15 5 11 -4 15 0 15 16 0 17 3 20 13 12 8 -7
18 -6 31 4 10 7 23 11 28 8 5 -4 20 4 33 16 13 12 30 20 37 17 7 -2 20 2 29 9
8 7 26 15 40 16 13 2 30 11 38 21 7 10 19 16 27 13 7 -3 20 5 29 17 11 16 18
19 23 10 6 -10 17 -8 45 6 21 11 43 23 50 28 7 5 22 10 35 11 13 0 38 12 55
25 18 13 41 27 51 30 16 7 17 5 6 -10 -7 -10 -1 -6 13 9 16 17 32 25 41 22 10
-4 16 -1 16 7 0 7 3 10 6 6 4 -3 13 0 20 8 11 11 14 58 14 218 0 190 -1 205
-17 202 -10 -1 -17 -7 -16 -11 1 -5 -10 -10 -23 -10 -14 -1 -34 -10 -45 -20
-17 -15 -24 -16 -40 -6 -10 7 -19 9 -18 5 4 -23 -3 -33 -21 -33 -11 0 -20 -3
-20 -7 0 -5 -14 -16 -31 -25 -17 -10 -27 -22 -24 -28 3 -5 -1 -10 -9 -10 -9 0
-16 7 -16 16 0 14 -1 14 -16 0 -8 -9 -21 -16 -28 -16 -8 0 -19 -7 -26 -15 -7
-9 -18 -14 -25 -12 -6 3 -19 -1 -30 -9 -10 -8 -27 -14 -37 -14 -10 0 -18 -4
-18 -9 0 -6 -9 -8 -20 -6 -12 2 -27 -5 -37 -19 -10 -12 -24 -21 -31 -18 -7 2
-19 -2 -28 -8 -8 -7 -17 -10 -20 -7 -3 3 -15 -4 -26 -15 -11 -11 -28 -18 -39
-15 -10 3 -23 -1 -30 -9 -6 -8 -20 -14 -30 -14 -10 0 -27 -10 -39 -22 -20 -22
-60 -32 -60 -16 0 5 -16 -3 -36 -18 -19 -15 -47 -28 -62 -29 -14 0 -27 -6 -30
-13 -2 -7 -8 -9 -13 -6 -6 3 -21 -2 -35 -11 -13 -9 -29 -13 -34 -10 -6 4 -13
0 -16 -8 -8 -21 -41 -28 -48 -11 -8 20 4 44 20 44 8 0 14 4 14 9 0 5 3 18 7
28 6 17 5 17 -15 -1 -32 -28 -27 -9 8 31 26 29 29 37 19 55 -8 15 -8 23 -1 26
13 4 3 42 -11 42 -8 0 -8 3 0 11 16 16 5 39 -15 31 -15 -5 -16 -4 -2 13 8 10
10 16 5 13 -6 -4 -17 2 -24 14 -7 11 -9 18 -4 15 5 -3 9 3 9 14 0 23 -12 25
-20 4 -3 -8 -10 -15 -15 -15 -5 0 -4 11 2 25 8 16 19 23 32 21 11 -2 31 4 44
13 23 15 41 21 69 23 6 1 12 5 12 10 0 5 4 7 9 4 5 -3 14 1 21 9 9 11 17 12
31 4 15 -8 19 -6 19 6 0 12 6 15 20 10 13 -4 20 -2 21 7 0 7 4 4 9 -7 5 -11 9
-15 9 -8 1 19 32 45 47 39 8 -3 14 1 14 11 0 9 3 13 7 10 3 -4 17 0 30 8 18
12 28 13 44 5 17 -10 21 -8 26 9 4 16 11 19 28 15 15 -4 24 0 29 11 3 9 10 14
16 10 5 -3 20 0 32 7 13 7 27 11 33 9 5 -1 15 5 22 15 7 9 19 14 28 11 8 -4
15 -2 15 4 0 6 7 9 15 5 9 -3 15 0 15 10 0 10 6 13 19 9 12 -3 21 0 25 11 3 9
12 14 20 11 7 -3 26 3 41 13 16 11 32 17 36 15 3 -3 14 4 23 14 10 11 25 17
37 14 11 -3 19 0 19 6 0 7 5 9 10 6 12 -7 70 16 70 28 0 5 5 5 10 2 6 -3 10 2
10 11 0 10 3 14 6 11 4 -3 16 0 26 8 11 7 26 11 34 8 25 -10 34 46 34 219 0
171 0 171 -20 153 -11 -10 -23 -15 -26 -12 -4 4 -19 -2 -34 -13 -16 -11 -35
-20 -44 -20 -9 0 -16 -7 -16 -15 0 -10 -10 -15 -26 -15 -15 0 -35 -10 -45 -21
-14 -17 -22 -19 -32 -10 -11 8 -17 5 -27 -14 -8 -14 -19 -24 -25 -21 -6 2 -19
-2 -30 -10 -10 -8 -26 -14 -36 -14 -9 0 -22 -7 -29 -15 -7 -9 -21 -13 -31 -10
-13 4 -19 1 -19 -9 0 -9 -7 -16 -15 -16 -21 0 -108 -42 -121 -59 -6 -8 -18
-11 -28 -8 -9 4 -15 3 -12 -2 3 -5 -15 -14 -39 -20 -25 -6 -54 -20 -64 -30
-11 -11 -22 -17 -25 -14 -2 3 -11 1 -18 -3 -7 -5 -21 -9 -31 -9 -10 0 -22 -6
-26 -14 -5 -8 -14 -10 -21 -6 -7 4 -16 2 -20 -4 -4 -7 -17 -13 -28 -14 -12 -1
-22 -6 -22 -11 0 -5 -3 -6 -7 -3 -3 4 -12 2 -20 -5 -7 -6 -16 -8 -20 -4 -3 3
-15 -1 -25 -11 -11 -10 -18 -12 -18 -4 0 8 -9 7 -30 -4 -16 -9 -30 -12 -30 -8
0 5 -6 1 -13 -7 -7 -9 -27 -17 -46 -18 -26 -2 -32 1 -27 13 3 9 0 15 -11 15
-13 0 -13 3 -3 15 9 11 9 15 1 15 -7 0 -9 5 -6 10 9 14 -4 52 -16 45 -5 -4 -9
-2 -9 3 0 5 -12 14 -26 21 -18 8 -24 17 -20 27 4 12 2 15 -9 11 -8 -4 -17 -1
-21 5 -5 7 -2 8 6 3 10 -6 12 -4 7 7 -3 9 0 21 6 27 6 6 7 14 3 18 -4 4 -11 2
-15 -6 -7 -10 -9 -10 -14 2 -11 29 8 42 69 46 6 1 22 11 35 24 14 12 30 22 37
23 7 1 23 2 36 3 14 0 31 7 38 14 26 23 57 37 63 27 3 -5 32 4 64 20 32 17 64
30 70 30 6 0 11 5 11 11 0 6 9 8 22 4 17 -6 20 -4 14 10 -5 15 -4 16 9 5 8 -7
15 -8 15 -2 0 5 11 13 25 16 14 4 25 11 25 17 0 6 5 7 10 4 6 -3 10 0 10 7 0
9 3 9 10 -2 5 -8 10 -10 10 -4 0 11 71 29 98 25 6 -1 12 8 12 20 0 14 5 19 14
16 8 -3 20 0 26 8 6 8 26 17 43 21 18 3 35 11 39 17 3 6 17 12 29 14 13 2 26
7 29 11 3 4 19 14 35 22 17 8 33 20 37 27 5 6 17 9 27 6 11 -3 27 3 38 14 21
21 46 34 77 40 11 2 28 11 38 19 10 9 26 14 38 11 11 -3 20 -1 20 5 0 18 25
35 63 42 l37 7 0 124 c0 135 -3 142 -50 105z m-2860 -460 c0 -5 -2 -10 -4 -10
-3 0 -8 5 -11 10 -3 6 -1 10 4 10 6 0 11 -4 11 -10z m1624 -325 c-4 -8 -11
-12 -16 -9 -6 4 -5 10 3 15 19 12 19 11 13 -6z m-322 -81 c-11 -64 -10 -104 1
-97 9 5 9 3 0 -9 -7 -8 -10 -18 -6 -21 3 -4 0 -13 -7 -22 -9 -11 -9 -15 -1
-15 8 0 10 -8 6 -21 -4 -13 -3 -19 2 -16 6 4 9 -9 8 -31 -3 -51 -3 -50 -26
-63 -16 -8 -23 -8 -29 1 -5 8 -11 7 -23 -4 -10 -11 -17 -12 -19 -4 -3 7 -13 5
-31 -7 -19 -12 -27 -13 -27 -5 0 9 -3 10 -13 1 -8 -6 -17 -8 -20 -4 -4 3 -9
-2 -13 -11 -3 -9 -13 -16 -22 -16 -13 0 -13 2 1 18 29 32 18 37 -14 6 -21 -20
-28 -23 -23 -10 6 16 3 18 -32 13 -21 -4 -63 -9 -92 -13 -30 -3 -65 -12 -80
-20 -18 -9 -31 -10 -45 -2 -11 5 -17 6 -14 1 4 -6 -6 -11 -21 -12 -43 -3 -67
-7 -77 -12 -6 -3 -26 0 -45 7 -19 7 -30 13 -25 14 6 0 3 5 -7 10 -10 6 -15 20
-13 37 2 19 -5 35 -22 50 -23 22 -23 23 -4 23 25 0 25 -1 6 43 -8 20 -11 38
-6 41 5 4 7 15 4 26 -4 16 0 20 23 21 16 1 32 1 37 0 4 0 7 4 7 10 0 6 6 9 13
6 6 -2 27 2 46 9 18 8 37 12 41 9 4 -2 21 0 38 4 20 6 34 5 41 -2 9 -9 14 -8
20 2 5 8 16 11 26 7 10 -3 27 0 39 7 12 7 39 13 61 12 22 -1 46 4 53 11 7 7
19 11 27 8 8 -4 15 -1 15 6 0 9 4 9 13 2 12 -11 71 -3 95 12 6 3 13 2 17 -4 4
-7 14 -6 28 2 12 6 30 12 39 13 10 1 21 5 25 9 12 12 28 -1 25 -20z m19 -297
c-16 -16 -20 -5 -8 23 9 22 11 23 14 6 3 -10 0 -23 -6 -29z m414 -16 c-3 -6
-11 -11 -16 -11 -5 0 -4 6 3 14 14 16 24 13 13 -3z m-70 -11 c3 -5 1 -10 -4
-10 -6 0 -11 5 -11 10 0 6 2 10 4 10 3 0 8 -4 11 -10z m-289 -56 c13 -16 24
-24 24 -18 0 7 7 14 15 18 13 4 13 2 5 -14 -14 -27 -12 -34 5 -20 13 10 15 9
15 -10 0 -18 3 -20 13 -11 19 15 28 3 20 -27 -4 -17 -2 -23 5 -18 6 4 16 -3
22 -14 10 -18 14 -19 28 -8 14 11 15 10 8 -7 -5 -11 -11 -29 -14 -40 -4 -17
-2 -17 17 5 19 21 22 22 16 5 -12 -33 -11 -50 3 -47 15 3 16 3 -8 -43 -11 -22
-20 -46 -20 -54 0 -8 -3 -11 -6 -8 -4 4 -20 -3 -35 -14 -16 -11 -29 -17 -29
-12 0 4 -7 -1 -15 -11 -8 -11 -18 -17 -21 -13 -4 4 -12 2 -19 -3 -6 -5 -29
-12 -51 -15 -21 -3 -50 -8 -64 -11 -25 -6 -81 -6 -152 -3 -27 2 -39 7 -43 21
-4 10 -11 18 -16 18 -5 0 -9 9 -9 20 0 11 -3 19 -8 18 -4 -2 -14 3 -22 10 -8
7 -26 21 -39 32 -13 11 -21 26 -18 34 4 9 -2 17 -14 21 -24 8 -24 29 -1 52 10
10 26 30 35 46 10 15 25 27 33 27 9 0 43 25 76 56 36 32 66 53 75 50 7 -3 16
0 18 7 4 8 29 12 77 11 66 0 72 -2 94 -30z m414 -108 c0 -3 -4 -8 -10 -11 -5
-3 -10 -1 -10 4 0 6 5 11 10 11 6 0 10 -2 10 -4z m-181 -147 c-15 -29 -30 -33
-25 -7 5 28 3 25 20 25 11 0 12 -5 5 -18z m-24 -69 c-3 -5 -12 -10 -18 -10 -7
0 -6 4 3 10 19 12 23 12 15 0z m-815 -12 c0 -4 -7 -8 -15 -8 -20 0 -19 -17 2
-28 15 -9 14 -12 -5 -32 -13 -14 -25 -19 -34 -14 -7 4 -5 -2 5 -13 18 -21 18
-21 -15 -28 -29 -7 -30 -9 -13 -16 11 -4 15 -8 9 -8 -9 -1 -11 -32 -4 -51 6
-15 4 -36 -5 -43 -6 -6 -6 -10 3 -14 6 -2 9 -10 5 -16 -3 -6 11 -25 32 -43
l39 -32 -25 -26 c-13 -14 -32 -26 -42 -26 -10 0 -15 -4 -12 -10 3 -5 2 -10 -4
-10 -5 0 -13 5 -16 10 -3 6 -15 10 -26 10 -12 0 -17 -4 -13 -11 4 -8 0 -8 -15
0 -15 9 -21 9 -21 1 0 -6 -15 -1 -32 11 -22 16 -28 17 -19 6 12 -15 11 -17 -3
-17 -17 0 -22 25 -7 34 5 3 7 19 6 36 -1 17 2 30 9 30 6 0 4 5 -4 10 -13 8
-12 10 3 10 10 0 16 4 12 9 -3 5 0 13 6 17 8 4 7 9 -2 15 -11 7 -11 9 -1 9 7
0 10 5 7 10 -3 6 -2 10 4 10 5 0 8 20 6 45 -2 30 1 45 9 45 7 0 13 7 14 15 1
8 3 22 4 30 1 8 5 15 10 15 5 0 6 5 3 10 -3 6 1 10 10 10 9 0 13 5 10 10 -3 6
1 10 10 10 9 0 13 5 10 10 -7 11 30 8 41 -3 4 -4 12 -7 17 -7 6 0 8 3 4 6 -3
3 -1 12 6 18 13 14 37 17 37 4z m830 -22 c0 -2 -8 -10 -17 -17 -16 -13 -17
-12 -4 4 13 16 21 21 21 13z m-316 -166 c5 -5 22 -10 36 -10 30 0 56 -18 111
-75 44 -45 44 -45 25 -100 -11 -29 -20 -40 -35 -39 -11 0 -18 -2 -16 -5 13
-22 -54 -56 -144 -73 -89 -17 -213 19 -273 78 -35 35 -38 42 -35 84 5 55 18
82 51 103 31 21 107 47 117 41 4 -2 11 1 15 7 8 14 132 5 148 -11z m-424 -11
c3 -4 18 -13 34 -19 26 -9 27 -12 13 -23 -17 -12 -18 -32 -4 -54 6 -10 -6 -12
-52 -10 -48 2 -57 4 -48 15 8 11 7 16 -6 24 -16 8 -16 10 -1 26 15 15 15 17
-5 33 -15 12 -17 19 -9 22 16 7 71 -3 78 -14z m677 -25 c-3 -3 -12 -4 -19 -1
-8 3 -5 6 6 6 11 1 17 -2 13 -5z m122 -58 c9 -6 11 -20 7 -48 -4 -22 -3 -37 2
-34 5 3 9 0 9 -7 0 -7 4 -21 8 -32 7 -20 6 -20 -9 -1 -17 21 -46 30 -46 14 0
-5 -9 -6 -22 -2 -32 10 -60 7 -69 -8 -4 -7 -11 -9 -15 -5 -4 3 -1 14 7 24 12
15 12 16 -5 10 -16 -6 -17 -5 -6 8 8 10 9 15 1 15 -6 0 -11 5 -11 11 0 5 6 7
13 3 9 -6 9 -4 -1 8 -11 14 -10 17 7 23 12 3 21 10 21 15 0 16 85 21 109 6z
m136 -36 c-3 -5 -10 -10 -16 -10 -5 0 -9 5 -9 10 0 6 7 10 16 10 8 0 12 -4 9
-10z m-2085 -96 c0 -2 -7 -4 -15 -4 -8 0 -15 4 -15 10 0 5 7 7 15 4 8 -4 15
-8 15 -10z m845 -224 c3 -5 1 -10 -4 -10 -6 0 -11 5 -11 10 0 6 2 10 4 10 3 0
8 -4 11 -10z m235 -94 c0 -3 -4 -8 -10 -11 -5 -3 -10 -1 -10 4 0 6 5 11 10 11
6 0 10 -2 10 -4z m850 -16 c0 -5 -2 -10 -4 -10 -3 0 -8 5 -11 10 -3 6 -1 10 4
10 6 0 11 -4 11 -10z m-980 -33 c20 -16 42 -77 28 -77 -6 0 -8 -9 -5 -20 3
-11 0 -20 -6 -20 -7 0 -5 -5 3 -10 12 -8 13 -13 2 -30 -10 -17 -10 -21 3 -26
14 -6 14 -9 -2 -26 -14 -16 -15 -20 -3 -18 33 5 44 -2 20 -11 -14 -6 -20 -13
-14 -17 7 -5 7 -14 -1 -29 -7 -13 -15 -20 -19 -16 -10 10 -146 11 -152 1 -3
-4 -14 -3 -25 2 -12 7 -19 7 -19 1 0 -6 -6 -8 -14 -5 -9 3 -13 14 -10 27 11
47 15 73 18 103 1 17 6 37 11 44 6 9 4 12 -6 8 -12 -5 -14 2 -11 28 2 19 8 34
13 34 5 0 9 12 9 26 0 23 3 26 25 22 14 -3 25 -2 25 2 0 4 20 6 45 5 25 -1 48
2 51 7 7 11 16 10 34 -5z m251 -250 c-13 -13 -15 1 -4 30 7 17 8 17 11 -1 2
-10 -1 -23 -7 -29z m16 -27 c2 -23 -12 -27 -20 -6 -3 8 -1 17 6 20 7 2 12 5
12 5 1 1 1 -8 2 -19z m598 10 c3 -5 1 -10 -4 -10 -6 0 -11 5 -11 10 0 6 2 10
4 10 3 0 8 -4 11 -10z m-290 -65 c-3 -32 -1 -55 5 -55 6 0 10 -4 10 -10 0 -5
-6 -7 -14 -4 -8 3 -17 0 -22 -7 -4 -8 -3 -10 4 -5 7 4 12 5 12 2 0 -3 -10 -10
-22 -17 -18 -10 -20 -9 -15 5 4 9 2 16 -2 16 -14 0 -6 30 10 42 11 7 11 11 2
15 -17 6 -16 23 1 23 8 0 12 9 11 25 -2 16 2 25 10 25 11 0 13 -13 10 -55z
m-340 25 c-3 -5 -14 -10 -23 -9 -14 0 -13 2 3 9 27 11 27 11 20 0z m585 0 c0
-5 -2 -10 -4 -10 -3 0 -8 5 -11 10 -3 6 -1 10 4 10 6 0 11 -4 11 -10z m-562
-64 c-12 -15 -10 -24 7 -28 12 -2 11 -6 -6 -16 -21 -14 -22 -13 -15 28 4 27 3
39 -4 35 -11 -7 -14 18 -3 28 10 10 31 -37 21 -47z m272 -86 c0 -5 -2 -10 -4
-10 -3 0 -8 5 -11 10 -3 6 -1 10 4 10 6 0 11 -4 11 -10z m8 -31 c-4 -11 -58
-23 -58 -13 0 5 40 22 53 23 5 1 7 -4 5 -10z m-291 -95 c-3 -3 -12 -4 -19 -1
-8 3 -5 6 6 6 11 1 17 -2 13 -5z m-24 -53 c4 -1 -5 -13 -20 -28 -17 -16 -21
-24 -10 -20 19 7 24 -8 6 -19 -8 -4 -7 -9 2 -15 11 -7 10 -11 -6 -24 -20 -15
-20 -15 0 -8 19 6 19 5 4 -13 -21 -25 -31 -54 -19 -54 5 0 12 -11 16 -25 5
-20 11 -24 28 -20 11 2 15 2 8 -1 -7 -3 -17 -15 -23 -26 -10 -19 -9 -20 10
-15 18 4 20 3 11 -8 -8 -10 -7 -15 8 -19 10 -4 19 -13 19 -21 0 -8 -2 -13 -5
-11 -2 3 -14 1 -27 -4 -13 -5 -26 -6 -29 -3 -5 6 -42 11 -86 13 -8 1 -35 -1
-60 -4 -51 -5 -93 14 -84 39 4 8 1 15 -6 15 -7 0 -10 6 -7 14 3 8 1 17 -6 20
-9 5 -9 7 1 12 9 4 10 10 3 18 -6 6 -13 36 -16 66 -4 29 -11 62 -16 71 -16 31
-11 54 14 57 12 1 41 4 64 6 24 2 46 0 49 -5 3 -6 11 -6 19 1 8 7 19 9 24 5 6
-3 19 -2 28 4 15 8 50 9 106 2z"/>
<path d="M2863 2527 c-32 -28 -34 -32 -18 -44 15 -10 22 -9 43 7 19 16 28 17
39 9 16 -14 10 -22 -20 -24 -26 -2 -39 -45 -13 -45 19 0 28 -14 20 -35 -9 -23
-47 -15 -59 13 -10 23 -39 30 -51 10 -4 -6 0 -16 9 -23 10 -7 17 -15 17 -19 0
-4 11 -18 23 -32 29 -31 72 -34 114 -9 30 18 31 17 61 -4 36 -25 60 -27 90 -5
29 20 42 54 30 77 -6 12 -5 17 4 17 24 0 -29 41 -58 45 -16 2 -31 4 -34 4 -3
1 2 6 10 11 8 5 38 7 65 5 l50 -5 -28 25 c-38 34 -82 33 -116 -2 -32 -34 -38
-89 -10 -96 11 -3 22 -1 25 4 8 13 42 11 46 -3 7 -19 -3 -58 -14 -58 -5 0 -6
6 -2 13 6 10 4 10 -7 0 -18 -18 -25 -16 -48 8 -18 20 -21 20 -36 5 -9 -9 -20
-16 -24 -16 -13 0 -8 89 5 94 15 6 6 55 -13 77 -26 31 -62 29 -100 -4z"/>
<path d="M1 3701 c0 -217 5 -262 24 -231 6 10 55 -8 55 -20 0 -4 14 -10 31
-14 24 -5 35 -1 54 20 13 14 21 32 19 39 -7 17 51 46 64 33 7 -7 21 -7 42 0
17 6 36 9 43 6 7 -2 18 5 24 16 12 18 9 21 -32 40 -25 11 -45 25 -45 30 0 6
-7 10 -16 10 -20 0 -155 111 -151 124 6 17 -16 33 -35 28 -11 -3 -18 1 -18 10
0 11 9 14 35 11 21 -2 35 1 35 7 0 7 8 9 19 5 11 -3 22 -1 26 5 3 5 16 10 28
10 15 0 28 12 39 35 l18 35 -28 1 c-98 4 -172 -5 -172 -21 0 -6 -9 -2 -19 7
-11 9 -18 20 -16 24 3 4 -2 12 -10 19 -12 10 -14 -19 -14 -229z"/>
<path d="M1387 3469 c-15 -4 -27 -5 -27 -3 0 2 -15 -13 -34 -33 -28 -31 -33
-45 -31 -78 3 -59 16 -115 27 -115 5 0 7 -4 4 -9 -6 -10 43 -24 92 -26 44 -1
107 54 97 85 -9 29 -46 24 -56 -9 -3 -7 -23 -15 -47 -17 -37 -4 -43 -1 -55 24
-21 42 -14 80 22 113 32 29 47 37 37 20 -3 -5 8 -11 24 -15 17 -3 30 -12 30
-20 0 -22 31 -29 45 -9 13 18 10 43 -6 43 -5 0 -9 9 -9 21 0 11 -4 17 -10 14
-5 -3 -10 -1 -10 6 0 8 -4 8 -15 -1 -12 -10 -15 -10 -15 3 0 17 -18 18 -63 6z"/>
<path d="M830 3462 c0 -5 -16 -9 -36 -9 -39 0 -78 -36 -89 -83 -14 -62 -14
-71 1 -77 8 -3 13 -12 10 -19 -3 -8 0 -14 6 -14 6 0 9 -3 5 -6 -6 -6 19 -38
25 -32 2 2 14 -7 28 -19 28 -27 42 -28 75 -7 14 9 25 13 25 9 0 -16 49 54 56
79 6 26 5 27 -22 24 -18 -2 -33 -11 -39 -25 -8 -19 -27 -29 -73 -39 -6 -1 -10
2 -6 7 3 5 1 9 -5 9 -6 0 -8 7 -5 15 5 11 2 13 -12 8 -11 -4 -15 -3 -10 5 3 6
2 13 -3 16 -15 9 -10 66 5 66 8 0 11 6 8 15 -6 15 -3 16 61 19 11 1 27 -7 36
-16 15 -17 17 -17 34 2 16 18 16 20 -8 44 -17 17 -32 24 -43 19 -12 -4 -15 -3
-10 5 4 7 2 12 -3 12 -6 0 -11 -4 -11 -8z"/>
<path d="M1877 3401 c-7 -9 -12 -40 -12 -68 0 -29 -3 -53 -8 -53 -4 0 -5 -11
-1 -24 4 -17 1 -25 -12 -30 -15 -6 -16 -9 -4 -16 10 -6 11 -12 2 -22 -12 -15
-5 -31 18 -37 40 -9 70 -12 120 -14 43 -2 55 1 55 13 0 8 -8 14 -17 14 -10 -1
-18 3 -18 8 0 6 -11 7 -26 4 -17 -5 -23 -3 -19 4 3 5 -1 10 -9 10 -9 0 -23 12
-32 26 -16 23 -16 26 -1 42 10 9 17 12 17 6 0 -6 6 -11 13 -11 6 -1 26 -6 44
-11 17 -6 34 -8 37 -4 9 8 7 42 -1 43 -5 0 -19 3 -33 6 -14 3 -35 6 -47 6 -12
1 -20 4 -17 8 7 13 -8 39 -19 32 -6 -4 -7 -1 -3 6 5 8 19 10 38 6 17 -4 29 -3
26 1 -2 5 -10 21 -17 36 -16 31 -55 42 -74 19z"/>
<path d="M290 3383 c-47 -9 -60 -39 -25 -60 11 -7 15 -12 9 -13 -7 0 -15 -15
-18 -34 -4 -19 -14 -40 -23 -47 -12 -10 -15 -10 -9 -1 4 6 3 12 -2 12 -5 0 -9
7 -10 15 -1 8 -3 22 -4 30 -1 8 -5 12 -10 9 -4 -3 -8 0 -8 5 0 6 0 13 0 16 0
3 -10 15 -22 27 -19 19 -23 20 -47 7 -27 -15 -44 -53 -19 -44 14 6 17 -13 19
-112 1 -37 5 -50 14 -47 13 6 13 -35 0 -68 -10 -25 20 -24 47 2 17 16 19 22 9
34 -7 8 -13 28 -13 45 -1 17 -5 31 -10 31 -4 0 -7 13 -6 29 1 19 7 27 15 24 7
-3 12 -8 11 -11 -1 -4 4 -17 11 -30 7 -13 14 -31 16 -40 23 -116 80 -81 80 48
0 38 4 72 9 77 5 4 7 1 4 -7 -3 -8 1 -21 8 -28 7 -7 11 -21 9 -32 -2 -11 1
-20 8 -20 8 0 8 -3 -1 -12 -17 -17 -15 -28 4 -28 8 0 13 -4 10 -9 -3 -5 2 -12
11 -15 9 -4 20 -2 23 5 9 13 1 49 -9 49 -8 0 -9 4 -14 74 -2 28 -9 52 -15 54
-6 2 -8 10 -5 18 3 8 0 20 -6 28 -6 7 -8 16 -4 19 7 7 4 7 -37 0z m20 -63 c0
-5 -5 -10 -11 -10 -5 0 -7 5 -4 10 3 6 8 10 11 10 2 0 4 -4 4 -10z"/>
<path d="M1978 3377 c-3 -6 0 -21 6 -32 19 -35 85 -20 86 19 0 4 -9 6 -20 3
-11 -3 -20 0 -20 6 0 6 -3 7 -6 4 -4 -3 -15 -2 -24 3 -13 7 -19 6 -22 -3z"/>
<path d="M1935 3320 c4 -6 11 -8 16 -5 14 9 11 15 -7 15 -8 0 -12 -5 -9 -10z"/>
<path d="M815 3114 c-8 -20 -15 -44 -15 -53 0 -9 -5 -22 -11 -28 -8 -8 -6 -18
5 -35 18 -28 13 -38 -19 -38 -11 0 -26 -5 -33 -12 -7 -7 -12 -8 -12 -2 0 14
-37 11 -51 -3 -6 -6 -18 -9 -25 -6 -8 3 -14 0 -14 -6 0 -6 -6 -11 -13 -11 -8
0 -22 -9 -32 -20 -18 -20 -18 -21 3 -27 12 -3 19 -10 15 -17 -3 -6 0 -6 8 2
15 14 43 16 34 2 -9 -14 85 -7 114 9 22 12 23 12 16 -5 -9 -22 -9 -29 -1 -65
4 -17 0 -32 -14 -47 -11 -12 -20 -28 -20 -37 0 -8 -5 -15 -10 -15 -6 0 -9 -3
-9 -7 3 -21 -3 -31 -21 -36 -11 -3 -20 -13 -20 -22 0 -9 -10 -25 -22 -36 l-23
-18 25 0 c14 0 44 4 67 8 45 9 83 -7 83 -33 0 -23 42 -27 60 -6 10 11 22 20
28 20 6 0 15 8 21 18 7 12 22 17 55 17 25 0 46 -3 46 -8 0 -4 6 -5 13 0 6 4
23 8 37 8 26 1 51 9 83 26 11 6 24 6 35 0 9 -5 29 -8 44 -6 33 4 81 -31 75
-54 -3 -12 3 -16 25 -16 15 0 28 5 28 11 0 6 10 10 23 10 13 -1 22 5 22 14 0
8 7 22 15 31 13 14 18 15 38 2 13 -8 31 -11 42 -8 10 3 21 1 25 -5 5 -8 11 -8
21 1 10 8 17 9 28 0 10 -9 16 -8 26 4 11 13 9 19 -10 35 -13 11 -26 20 -29 20
-15 0 -60 52 -55 64 3 7 -2 16 -10 19 -9 4 -13 15 -11 27 3 15 -1 20 -19 20
-25 0 -29 27 -8 53 11 12 10 15 -5 13 -11 0 -17 5 -15 13 2 8 -3 18 -10 22 -8
5 -3 7 13 5 13 -1 31 -6 38 -10 8 -5 16 -4 21 4 5 8 10 9 14 2 13 -21 96 16
96 42 -1 20 -88 55 -128 51 -40 -4 -58 11 -39 33 9 11 7 17 -6 27 -10 7 -15
19 -11 29 4 9 1 16 -6 16 -7 0 -10 7 -6 16 13 35 -6 29 -51 -14 -27 -27 -41
-48 -34 -50 9 -3 9 -7 0 -18 -8 -10 -8 -18 -1 -27 8 -10 2 -12 -29 -12 -21 0
-39 4 -39 8 0 5 -6 4 -13 -2 -8 -6 -17 -8 -20 -4 -4 3 -13 0 -21 -6 -8 -7 -19
-10 -25 -7 -5 3 -21 -8 -36 -26 l-27 -32 28 -9 c16 -5 36 -16 45 -23 17 -15
45 -18 53 -6 2 4 17 8 32 7 30 0 41 -27 19 -45 -8 -6 -11 -19 -8 -28 6 -15 5
-15 -10 -3 -15 12 -17 12 -12 -1 4 -10 -11 -34 -39 -64 -25 -27 -46 -55 -46
-61 0 -7 -5 -13 -11 -13 -5 0 -8 -4 -5 -9 7 -11 -12 -27 -45 -34 -21 -6 -35 1
-72 33 -25 22 -50 40 -56 40 -10 0 -15 13 -8 24 1 3 -12 20 -30 38 -17 18 -35
46 -39 61 -3 16 -13 31 -20 34 -25 9 -2 25 28 19 18 -3 41 0 59 9 16 9 29 12
29 9 0 -4 11 3 25 16 14 13 25 27 25 31 0 16 -67 32 -165 38 -6 1 -12 11 -13
24 -5 46 -9 59 -21 66 -7 4 -11 12 -10 17 2 16 -13 54 -22 54 -5 0 -16 -16
-24 -36z m39 -280 c3 -8 2 -12 -4 -9 -6 3 -10 10 -10 16 0 14 7 11 14 -7z"/>
<path d="M4628 1900 c-2 -6 -10 -13 -18 -14 -65 -14 -82 -22 -106 -47 -15 -16
-25 -30 -21 -30 26 -5 33 -4 45 4 9 7 19 4 32 -10 10 -12 16 -24 13 -27 -4 -3
-1 -6 6 -6 7 0 10 -4 7 -9 -3 -5 1 -12 10 -15 9 -4 14 -13 10 -21 -3 -8 0 -15
6 -15 19 0 -3 -17 -55 -43 -26 -14 -47 -19 -46 -13 4 33 -3 56 -16 56 -18 0
-19 12 -2 29 10 10 9 11 -5 6 -19 -8 -44 29 -39 59 3 18 2 18 -22 0 -21 -17
-33 -44 -17 -44 3 0 6 -9 7 -20 1 -11 8 -27 15 -35 30 -34 36 -43 40 -65 2
-15 -5 -28 -19 -37 -22 -15 -23 -14 -23 10 0 14 -5 27 -11 29 -5 2 -11 11 -12
20 -2 9 -8 22 -15 30 -6 8 -9 18 -5 21 3 4 1 7 -6 7 -8 0 -11 8 -9 18 3 10 0
19 -6 19 -6 0 -17 2 -24 4 -8 2 -19 -4 -25 -13 -9 -14 -8 -20 6 -30 9 -7 18
-25 19 -39 2 -19 7 -25 17 -21 9 3 12 1 7 -6 -4 -7 -3 -12 2 -12 5 0 10 -12
10 -26 0 -18 -8 -28 -25 -35 -33 -12 -63 5 -63 36 0 14 -5 25 -11 25 -6 0 -9
7 -5 15 3 8 2 15 -3 15 -5 0 -12 11 -15 25 -7 29 -31 33 -44 8 -7 -12 -4 -22
9 -37 11 -11 19 -30 19 -43 0 -13 4 -23 9 -23 6 0 8 -10 6 -22 -3 -12 1 -25 7
-29 7 -5 10 -9 8 -11 -3 -2 -22 -16 -42 -31 -38 -28 -54 -34 -43 -17 3 6 -1
13 -9 16 -9 3 -14 10 -11 14 3 5 -2 16 -11 24 -8 9 -12 16 -8 16 4 0 0 8 -8
18 -18 19 -9 57 13 57 7 0 15 8 17 18 8 39 -111 2 -150 -47 -25 -30 -22 -39
12 -34 16 2 32 0 34 -6 3 -7 5 -6 5 1 1 7 7 10 15 7 9 -4 12 -15 9 -36 -2 -16
-1 -28 4 -26 4 3 16 -3 25 -13 19 -21 25 -14 -57 -64 -33 -20 -45 -19 -40 4 2
11 -3 25 -11 32 -8 6 -14 8 -14 3 0 -5 -4 -3 -9 5 -7 10 -4 19 7 28 12 9 14
15 6 20 -6 5 -14 20 -17 34 -8 33 -55 49 -73 25 -13 -19 -34 -21 -34 -4 0 9
-3 9 -12 0 -7 -7 -20 -12 -30 -12 -30 0 -39 -32 -17 -60 10 -14 19 -30 19 -36
0 -7 7 -15 16 -18 9 -4 14 -13 10 -21 -3 -8 -1 -15 5 -15 5 0 7 -12 5 -26 -4
-19 -1 -24 10 -20 7 3 14 3 14 0 0 -5 -64 -34 -75 -34 -6 0 0 41 12 83 2 10 1
17 -4 16 -24 -6 -39 13 -35 43 4 25 2 30 -11 25 -11 -4 -14 -2 -10 9 3 9 -1
14 -11 14 -21 0 -37 -40 -24 -57 6 -7 7 -13 4 -13 -4 0 0 -7 9 -16 12 -12 13
-19 5 -24 -8 -5 -7 -9 4 -13 21 -8 20 -23 -3 -48 -16 -18 -22 -19 -40 -7 -12
7 -21 18 -21 25 0 7 -5 13 -11 13 -6 0 -9 6 -6 13 2 6 -2 24 -9 38 -7 15 -10
29 -7 33 6 6 1 8 -29 10 -6 1 -12 -13 -13 -31 -1 -18 2 -30 7 -27 8 5 12 -10
9 -33 -1 -7 2 -13 7 -13 5 0 8 -13 6 -30 -3 -23 0 -28 12 -23 10 4 17 -1 20
-14 7 -26 52 -49 60 -30 2 7 15 14 27 15 12 1 45 13 72 27 28 14 55 25 61 25
13 0 25 50 16 65 -19 29 -11 41 24 37 26 -3 34 -8 30 -19 -4 -10 -2 -13 8 -10
10 4 13 1 9 -9 -8 -21 30 -18 69 6 18 11 43 20 56 20 22 0 62 19 116 55 15 10
47 20 69 22 22 2 46 8 54 14 9 9 13 8 13 0 0 -12 32 3 58 27 7 6 17 12 22 12
5 0 19 10 32 23 45 44 104 78 123 71 13 -5 16 -4 11 4 -5 8 -2 10 9 6 18 -7
44 12 40 29 -10 39 -18 56 -26 51 -5 -3 -6 2 -3 10 4 9 -1 18 -10 22 -9 3 -13
10 -10 15 3 5 0 9 -5 9 -19 0 -12 38 8 45 31 10 44 30 27 44 -10 8 -15 9 -18
1z m-694 -352 c-5 -9 -2 -9 9 1 20 16 21 11 5 -24 -11 -26 -28 -34 -28 -14 0
8 -5 7 -15 -1 -26 -22 -38 3 -15 28 22 24 57 31 44 10z"/>
<path d="M3531 1466 c-7 -8 -19 -12 -27 -9 -8 3 -22 -1 -30 -8 -9 -8 -24 -14
-33 -14 -12 0 -16 -10 -17 -37 0 -21 3 -38 8 -38 5 0 14 -13 19 -30 6 -16 15
-30 21 -30 5 0 7 -4 4 -9 -4 -5 -1 -11 5 -13 23 -8 -23 -38 -59 -39 -20 -1
-47 -3 -59 -4 -17 -2 -23 3 -23 17 0 11 -4 16 -10 13 -6 -3 -11 6 -12 22 -2
42 -3 46 -17 71 -18 33 -33 23 -35 -25 -1 -23 1 -40 6 -37 4 3 8 -3 9 -13 0
-10 2 -32 4 -49 4 -24 0 -33 -13 -37 -9 -3 -42 -15 -72 -26 -68 -26 -66 -26
-65 7 0 24 3 27 33 25 28 -1 32 2 32 23 0 13 4 24 9 24 16 0 21 30 8 50 -6 11
-20 20 -30 20 -15 0 -16 3 -7 20 13 24 3 26 -22 3 -10 -9 -18 -12 -18 -7 0 6
-20 8 -47 4 -40 -4 -48 -8 -47 -25 2 -25 9 -56 18 -76 4 -9 6 -20 4 -25 -1 -5
6 -24 15 -41 10 -18 14 -33 10 -33 -4 0 -2 -5 4 -11 12 -12 116 16 175 47 22
11 28 12 26 2 -3 -12 3 -13 57 -4 11 2 25 4 31 5 6 0 28 12 48 26 21 14 41 23
46 20 5 -3 24 2 41 11 18 9 51 17 73 18 37 1 41 4 44 28 3 26 2 27 -30 17 -57
-18 -83 -16 -80 5 2 11 -1 15 -7 11 -6 -3 -11 -2 -11 3 0 17 30 22 36 7 9 -22
44 26 44 60 0 24 -1 25 -16 11 -18 -18 -34 -21 -34 -5 0 5 -10 3 -22 -5 -25
-18 -42 -21 -33 -6 3 6 2 10 -4 10 -6 0 -8 7 -5 15 4 9 18 14 38 13 26 -1 86
19 74 25 -1 1 -12 10 -24 20 -18 15 -23 16 -33 3z m-385 -182 c-3 -8 -2 -12 3
-9 5 3 12 1 15 -3 3 -5 -6 -14 -21 -21 -34 -16 -47 3 -34 47 1 1 10 2 22 2 15
0 19 -5 15 -16z"/>
<path d="M1135 980 c-3 -5 1 -10 10 -10 9 0 13 5 10 10 -3 6 -8 10 -10 10 -2
0 -7 -4 -10 -10z"/>
<path d="M1068 973 c7 -3 16 -2 19 1 4 3 -2 6 -13 5 -11 0 -14 -3 -6 -6z"/>
<path d="M1293 973 c9 -2 23 -2 30 0 6 3 -1 5 -18 5 -16 0 -22 -2 -12 -5z"/>
<path d="M923 963 c9 -2 25 -2 35 0 9 3 1 5 -18 5 -19 0 -27 -2 -17 -5z"/>
<path d="M1870 950 c0 -6 7 -10 15 -10 8 0 15 2 15 4 0 2 -7 6 -15 10 -8 3
-15 1 -15 -4z"/>
<path d="M2278 493 c7 -3 16 -2 19 1 4 3 -2 6 -13 5 -11 0 -14 -3 -6 -6z"/>
</g>
</svg>
